# xmcd
# Track frame offsets:
# 150
# 11195
# 23760
# 38727
# 51630
# 67145
# 79452
# 92840
# 104327
# 119617
#
# Disc length: 1897 seconds
# Revision: 0
# Processed by: cddbd v1.4PL0 Copyright (c) Steve Scherf et al.
# Submitted via: VisiTrax 2.9.5.180 - For more info visit www.synapsa.com
#
DISCID=8f07670a
DTITLE=Carl Vaughan - Six feet deep in the heart of Texas
DYEAR=1999
DGENRE=
TTITLE0=Who'll by the wine
TTITLE1=Six feet deep in the heart of Texas
TTITLE2=When the music stops
TTITLE3=After i tuck your memories in
TTITLE4=Four in the morning
TTITLE5=Ain't no leaving left
TTITLE6=A lot of missing you to do
TTITLE7=He don't deserve you anymore
TTITLE8=Half a mind
TTITLE9=Relaxin'
EXTD=
EXTT0=
EXTT1=
EXTT2=
EXTT3=
EXTT4=
EXTT5=
EXTT6=
EXTT7=
EXTT8=
EXTT9=
PLAYORDER=
